<svg xmlns="http://www.w3.org/2000/svg" viewBox="0 0 108 40">
  <g transform="translate(2,2)">
    <circle fill="#6c5ce7" cx="18" cy="18" r="18"/>
    <path d="M25.8 24.27l-6.02-15.22c-.34-.7-.84-1.08-1.5-1.08h-.53c-.67 0-1.17.39-1.51 1.17l-2.62 6.63h-1.98c-.59 0-1.08.5-1.08 1.13v.02c0 .62.49 1.12 1.08 1.13h1.07l-2.5 6.32c-.03.1-.07.23-.07.43 0 .35.1.63.3.85.19.22.46.32.8.32.22 0 .42-.07.62-.22.19-.14.33-.34.43-.57l2.75-7.14h1.91c.59 0 1.07-.5 1.08-1.13v-.03c-.01-.62-.49-1.13-1.08-1.13h-1.02l2.1-5.48 5.62 14.34c.1.23.24.43.43.57.18.14.4.22.62.22.34 0 .61-.11.8-.32.19-.22.3-.5.3-.85a1.06 1.06 0 00-.07-.43z" fill="#FFF"/>
  </g>
  <text x="44" y="27.5" font-family="Arial, Helvetica, sans-serif" font-size="24" font-weight="400" fill="#6c5ce7" letter-spacing="0.5">Aave</text>
</svg>
